<svg width="1522" height="216" viewBox="0 0 1522 216" fill="none" xmlns="http://www.w3.org/2000/svg">
<path d="M92.0879 99.2635H214.074C215.669 121.189 211.682 141.122 202.115 159.061C192.747 177 179.691 190.853 162.948 200.62C146.404 210.387 128.265 215.27 108.532 215.27C77.8362 215.27 52.0237 204.905 31.0946 184.176C10.3649 163.446 0 137.932 0 107.635C0 77.3379 10.3649 51.8244 31.0946 31.0946C52.0237 10.3649 77.8362 0 108.532 0C130.657 0 150.191 5.78041 167.134 17.3412C184.076 28.7027 196.434 43.0541 204.208 60.3953L182.98 69.3649C176.402 55.2129 166.436 43.7517 153.081 34.9814C139.926 26.0118 125.076 21.527 108.532 21.527C84.8125 21.527 64.7804 29.8987 48.4358 46.6419C32.0912 63.1858 23.9189 83.5169 23.9189 107.635C23.9189 131.753 32.0912 152.184 48.4358 168.927C64.7804 185.471 84.8125 193.743 108.532 193.743C130.657 193.743 149.194 186.667 164.144 172.515C179.093 158.164 187.365 140.823 188.96 120.492H92.0879V99.2635Z" fill="#F5F5F5"/>
<path d="M401.473 212.28H376.359L354.533 156.669H240.918L219.092 212.28H194.874L277.693 2.98987H318.654L401.473 212.28ZM297.725 10.7635L248.99 135.441H346.46L297.725 10.7635Z" fill="#F5F5F5"/>
<path d="M472.595 99.2635H594.582C596.176 121.189 592.19 141.122 582.622 159.061C573.254 177 560.198 190.853 543.455 200.62C526.911 210.387 508.772 215.27 489.039 215.27C458.343 215.27 432.531 204.905 411.602 184.176C390.872 163.446 380.507 137.932 380.507 107.635C380.507 77.3379 390.872 51.8244 411.602 31.0946C432.531 10.3649 458.343 0 489.039 0C511.164 0 530.698 5.78041 547.641 17.3412C564.583 28.7027 576.941 43.0541 584.715 60.3953L563.487 69.3649C556.909 55.2129 546.943 43.7517 533.588 34.9814C520.433 26.0118 505.583 21.527 489.039 21.527C465.32 21.527 445.288 29.8987 428.943 46.6419C412.598 63.1858 404.426 83.5169 404.426 107.635C404.426 131.753 412.598 152.184 428.943 168.927C445.288 185.471 465.32 193.743 489.039 193.743C511.164 193.743 529.701 186.667 544.651 172.515C559.6 158.164 567.872 140.823 569.467 120.492H472.595V99.2635Z" fill="#F5F5F5"/>
<path d="M695.976 99.2635H817.962C819.557 121.189 815.57 141.122 806.003 159.061C796.634 177 783.579 190.853 766.835 200.62C750.291 210.387 732.153 215.27 712.42 215.27C681.724 215.27 655.911 204.905 634.982 184.176C614.253 163.446 603.888 137.932 603.888 107.635C603.888 77.3379 614.253 51.8244 634.982 31.0946C655.911 10.3649 681.724 0 712.42 0C734.545 0 754.079 5.78041 771.021 17.3412C787.964 28.7027 800.322 43.0541 808.095 60.3953L786.867 69.3649C780.29 55.2129 770.324 43.7517 756.969 34.9814C743.813 26.0118 728.964 21.527 712.42 21.527C688.7 21.527 668.668 29.8987 652.323 46.6419C635.979 63.1858 627.807 83.5169 627.807 107.635C627.807 131.753 635.979 152.184 652.323 168.927C668.668 185.471 688.7 193.743 712.42 193.743C734.545 193.743 753.082 186.667 768.031 172.515C782.981 158.164 791.253 140.823 792.847 120.492H695.976V99.2635Z" fill="#F5F5F5"/>
<path d="M958.322 212.28H829.459V2.98987H958.322V24.2179H852.78V97.1706H955.332V118.1H852.78V191.052H958.322V212.28Z" fill="#F5F5F5"/>
<path d="M1126.95 207.497V2.98987H1150.27V212.28H1104.52L996.889 8.07264V212.28H973.568V2.98987H1019.31L1126.95 207.497Z" fill="#F5F5F5"/>
<path d="M1363.57 212.28H1338.45L1316.63 156.669H1203.01L1181.19 212.28H1156.97L1239.79 2.98987H1280.75L1363.57 212.28ZM1259.82 10.7635L1211.08 135.441H1308.55L1259.82 10.7635Z" fill="#F5F5F5"/>
<path d="M1350.7 134.843V2.98987H1374.02V134.843C1374.02 151.985 1379.8 166.137 1391.36 177.299C1402.92 188.262 1417.77 193.743 1435.91 193.743C1454.45 193.743 1469.4 188.262 1480.76 177.299C1492.32 166.336 1498.1 152.184 1498.1 134.843V2.98987H1521.42V134.843C1521.42 158.363 1513.35 177.698 1497.2 192.846C1481.26 207.796 1460.83 215.27 1435.91 215.27C1411 215.27 1390.56 207.796 1374.62 192.846C1358.67 177.698 1350.7 158.363 1350.7 134.843Z" fill="#F5F5F5"/>
</svg>
